<?xml version="1.0" standalone="no"?>
<!DOCTYPE svg PUBLIC "-//W3C//DTD SVG 20010904//EN"
 "http://www.w3.org/TR/2001/REC-SVG-20010904/DTD/svg10.dtd">
<svg version="1.0" xmlns="http://www.w3.org/2000/svg"
 width="560.000000pt" height="720.000000pt" viewBox="0 0 560.000000 720.000000"
 preserveAspectRatio="xMidYMid meet">

<g transform="translate(0.000000,720.000000) scale(0.100000,-0.100000)"
fill="#000000" stroke="none">
<path d="M801 7180 c-297 -62 -535 -277 -633 -570 -30 -89 -32 -104 -32 -245
-1 -127 2 -162 22 -228 43 -150 133 -297 239 -392 l45 -40 -64 -95 c-233 -345
-352 -715 -365 -1145 -14 -434 76 -789 278 -1095 87 -133 270 -314 413 -409
108 -71 295 -171 389 -206 26 -10 45 -20 43 -22 -2 -3 -40 -17 -84 -32 -246
-85 -482 -285 -591 -500 -57 -110 -59 -246 -6 -336 63 -109 242 -226 408 -269
l47 -12 -68 -47 c-174 -119 -304 -305 -364 -522 -29 -103 -36 -307 -14 -415
62 -306 250 -482 596 -556 105 -23 435 -26 545 -6 150 28 254 71 359 152 36
27 68 50 70 50 3 0 31 -16 62 -36 184 -118 458 -172 809 -161 269 9 461 48
613 127 42 22 85 46 95 53 11 8 21 9 30 2 163 -123 351 -191 591 -215 292 -29
557 48 726 210 158 152 236 394 209 653 -15 147 -55 268 -133 401 -49 83 -178
218 -259 271 l-58 38 68 22 c167 53 325 167 380 274 80 153 20 342 -171 539
-97 101 -235 200 -348 251 -36 17 -111 42 -166 57 l-102 27 120 52 c617 270
975 699 1076 1290 8 50 18 160 21 245 18 481 -120 934 -408 1335 l-32 45 59
62 c104 109 158 201 199 345 59 200 40 409 -54 598 -87 175 -205 294 -376 380
-136 67 -238 88 -405 82 -147 -5 -222 -23 -335 -79 -196 -98 -361 -286 -424
-480 -7 -21 -14 -38 -16 -38 -2 0 -59 13 -127 30 -169 41 -333 68 -528 86
-205 20 -640 14 -830 -10 -138 -18 -378 -65 -482 -94 l-67 -19 -20 59 c-79
235 -294 438 -546 518 -56 18 -99 23 -215 26 -80 2 -165 -1 -189 -6z m2459
-534 c260 -34 540 -101 757 -181 130 -48 375 -167 493 -240 422 -262 740 -637
903 -1065 96 -253 131 -445 131 -735 1 -228 -8 -301 -55 -483 -210 -819 -1048
-1305 -2379 -1382 -560 -32 -1200 18 -1633 126 -497 125 -873 348 -1102 652
-282 377 -383 934 -269 1500 103 518 410 979 872 1309 388 277 877 450 1437
508 178 19 675 13 845 -9z m339 -4177 c-39 -192 -18 -349 62 -465 70 -102 248
-242 398 -313 l63 -30 -43 -11 c-24 -7 -76 -27 -115 -45 -281 -129 -474 -386
-529 -704 -30 -168 -14 -322 47 -453 l32 -70 -25 -19 c-39 -30 -139 -66 -235
-86 -76 -15 -141 -18 -434 -18 -301 0 -355 2 -424 19 -94 22 -151 45 -210 86
l-44 29 25 68 c38 104 53 202 53 344 0 206 -36 340 -130 482 -110 167 -267
285 -469 353 l-95 32 75 37 c172 87 324 214 393 328 39 66 66 168 66 250 0 47
-20 190 -36 253 -5 19 -3 20 63 13 413 -44 1178 -34 1483 20 25 4 46 7 48 5 2
-1 -7 -48 -19 -105z m-2024 -1253 c187 -50 307 -155 366 -322 30 -85 38 -268
14 -350 -28 -97 -72 -169 -150 -242 -134 -128 -265 -182 -461 -190 -149 -6
-242 12 -363 70 -276 132 -409 473 -299 766 53 143 234 245 500 282 92 13 322
5 393 -14z m2890 9 c177 -27 327 -87 408 -163 36 -34 80 -121 97 -190 6 -28
12 -89 12 -135 0 -276 -166 -508 -426 -594 -74 -25 -94 -27 -236 -27 -141 0
-162 2 -235 27 -164 55 -308 169 -373 297 -96 192 -69 454 64 616 122 150 386
214 689 169z"/>
<path d="M1655 5501 c-121 -36 -215 -91 -347 -205 -94 -80 -253 -257 -312
-346 -135 -203 -125 -409 31 -643 62 -93 231 -264 312 -316 220 -141 530 -111
708 68 109 110 157 218 192 436 77 482 43 739 -117 887 -134 123 -304 167
-467 119z m292 -393 c50 -23 98 -75 127 -137 31 -68 30 -223 -3 -306 -32 -80
-134 -184 -205 -208 -116 -39 -227 -6 -298 89 -95 125 -102 302 -16 436 85
134 260 190 395 126z"/>
<path d="M1712 5057 c-45 -14 -118 -80 -145 -131 -17 -32 -22 -58 -22 -116 0
-87 20 -132 82 -192 50 -49 105 -70 178 -70 73 0 128 21 178 70 62 60 82 105
82 192 0 58 -5 84 -22 116 -29 54 -101 117 -151 132 -47 14 -135 14 -180 -1z
m36 -84 c32 -27 37 -64 12 -96 -43 -54 -123 -25 -123 45 0 57 67 88 111 51z"/>
<path d="M3686 5509 c-71 -17 -169 -73 -227 -129 -65 -64 -102 -131 -131 -238
-36 -137 -26 -413 26 -707 29 -165 80 -270 181 -371 140 -142 340 -195 539
-144 115 29 188 73 299 179 301 289 383 568 238 816 -74 127 -324 387 -459
478 -164 110 -323 149 -466 116z m221 -404 c68 -31 138 -102 171 -173 24 -50
27 -69 27 -162 0 -95 -3 -111 -28 -162 -35 -72 -110 -141 -172 -158 -207 -58
-424 162 -401 408 20 221 208 336 403 247z"/>
<path d="M3690 5049 c-97 -44 -154 -132 -153 -239 0 -75 17 -121 63 -174 117
-133 337 -113 426 40 31 53 42 147 25 210 -39 146 -219 227 -361 163z m59 -85
c27 -34 27 -64 1 -92 -43 -46 -120 -15 -120 48 0 65 79 94 119 44z"/>
<path d="M2685 4007 c-72 -19 -126 -50 -168 -96 -45 -50 -56 -100 -33 -148 22
-45 67 -64 189 -76 l97 -10 0 -168 0 -167 -63 -17 c-96 -26 -225 -18 -297 17
-31 15 -70 42 -88 59 -33 33 -59 30 -46 -4 11 -29 120 -94 188 -112 76 -21
190 -16 268 10 45 16 51 15 135 -5 165 -42 319 -11 409 81 29 29 35 42 26 51
-8 8 -21 2 -51 -25 -54 -49 -108 -75 -177 -86 -62 -9 -168 1 -233 22 l-36 12
0 168 0 167 50 0 c75 1 183 18 222 36 115 55 56 214 -102 274 -74 28 -216 36
-290 17z m-35 -93 c0 -3 -11 -19 -25 -36 -14 -16 -25 -40 -25 -54 0 -26 -27
-33 -48 -12 -21 21 -13 45 23 77 31 27 75 42 75 25z"/>
</g>
</svg>
